<svg xmlns="http://www.w3.org/2000/svg" xmlns:xlink="http://www.w3.org/1999/xlink" width="1024" height="1024" viewBox="0 0 1024 1024" >
<defs><filter id="b" filterUnits="userSpaceOnUse" x="-100" y="-100" width="1224" height="1224" color-interpolation-filters="sRGB"><feGaussianBlur stdDeviation="30"/></filter></defs><rect width="1024" height="1024" fill="rgb(1,2,7)"/><g filter="url(#b)" style="mix-blend-mode:screen"><path d="M 320.2 150 A 385.4 467.9 0 0 1 319.7 880" fill="none" stroke="#ccffff" stroke-width="8" stroke-opacity="0.10"/></g><g filter="url(#b)" style="mix-blend-mode:screen"><path d="M 320.2 150 A 385.4 467.9 0 0 1 319.7 880" fill="none" stroke="#ccffff" stroke-width="8" stroke-opacity="0.10"/></g><g filter="url(#b)" style="mix-blend-mode:screen"><path d="M 320.2 150 A 385.4 467.9 0 0 1 319.7 880" fill="none" stroke="#ccffff" stroke-width="8" stroke-opacity="0.10"/></g><g filter="url(#b)" style="mix-blend-mode:screen"><path d="M 320.2 150 A 385.4 467.9 0 0 1 319.7 880" fill="none" stroke="#ccffff" stroke-width="8" stroke-opacity="0.10"/></g><g filter="url(#b)" style="mix-blend-mode:screen"><path d="M 320.2 150 A 385.4 467.9 0 0 1 319.7 880" fill="none" stroke="#ccffff" stroke-width="8" stroke-opacity="0.10"/></g><g filter="url(#b)" style="mix-blend-mode:screen"><path d="M 320.2 150 A 385.4 467.9 0 0 1 319.7 880" fill="none" stroke="#ccffff" stroke-width="8" stroke-opacity="0.10"/></g><g filter="url(#b)" style="mix-blend-mode:screen"><path d="M 320.2 150 A 385.4 467.9 0 0 1 319.7 880" fill="none" stroke="#ccffff" stroke-width="8" stroke-opacity="0.10"/></g><g filter="url(#b)" style="mix-blend-mode:screen"><path d="M 320.2 150 A 385.4 467.9 0 0 1 319.7 880" fill="none" stroke="#ccffff" stroke-width="8" stroke-opacity="0.10"/></g><g filter="url(#b)" style="mix-blend-mode:screen"><path d="M 320.2 150 A 385.4 467.9 0 0 1 319.7 880" fill="none" stroke="#ccffff" stroke-width="8" stroke-opacity="0.10"/></g><g filter="url(#b)" style="mix-blend-mode:screen"><path d="M 320.2 150 A 385.4 467.9 0 0 1 319.7 880" fill="none" stroke="#ccffff" stroke-width="8" stroke-opacity="0.10"/></g>
</svg>
